# xmcd CD database file
#
# Track frame offsets:
#	150
#	15830
#	27380
#	39327
#	51937
#	76187
#	91517
#	111182
#	127275
#	141430
#	156120
#	170217
#	187955
#	204525
#	220285
#	232867
#	255655
#	282615
#
# Disc length: 4308 seconds
#
# Revision: 4
# Processed by: cddbd v1.5.2PL0 Copyright (c) Steve Scherf et al.
# Submitted via: CDex 1.51
#
DISCID=f910d212
DTITLE=Various Artist - Sentimento
DYEAR=2002
DGENRE=Blues
TTITLE0=Andrea Bocelli - En Aranjuez Con Tu Amor 
TTITLE1=Andrea Bocelli - Mattinata
TTITLE2=Andrea Bocelli - Barcarolle
TTITLE3=Andrea Bocelli - L'alba Separa Dalla Luce L'ombra
TTITLE4=Andrea Bocelli - Sogno D'amore 
TTITLE5=Andrea Bocelli - La Serenata 
TTITLE6=Andrea Bocelli - L'ultima Canzone 
TTITLE7=Andrea Bocelli - Malia
TTITLE8=Andrea Bocelli - La Danza 
TTITLE9=Andrea Bocelli - Ideale
TTITLE10=Andrea Bocelli - Sogno
TTITLE11=Andrea Bocelli - Plaisir D'amour 
TTITLE12=Andrea Bocelli - Musica Proibita 
TTITLE13=Andrea Bocelli - Occhi Di Fata 
TTITLE14=Andrea Bocelli - A Vucchella 
TTITLE15=Andrea Bocelli - Vorrei Morire!
TTITLE16=Andrea Bocelli - Vaghissima Sembianza 
TTITLE17=Andrea Bocelli - DATA
EXTD=YEAR: 2002
EXTT0=
EXTT1=
EXTT2=
EXTT3=
EXTT4=
EXTT5=
EXTT6=
EXTT7=
EXTT8=
EXTT9=
EXTT10=
EXTT11=
EXTT12=
EXTT13=
EXTT14=
EXTT15=
EXTT16=
EXTT17=
PLAYORDER=
